<svg width="328" height="328" viewBox="0 0 328 328" fill="none" xmlns="http://www.w3.org/2000/svg">
<path d="M143.087 38.2133C154.802 26.4978 173.798 26.4977 185.513 38.2133L290.386 143.086C302.102 154.802 302.102 173.797 290.386 185.513L185.513 290.386C173.798 302.102 154.802 302.102 143.087 290.386L94.4782 241.778L105.182 231.075L110.577 236.469C116.097 241.968 123.572 245.054 131.364 245.054C139.156 245.054 146.631 241.968 152.151 236.469L162.173 226.447C164.375 224.245 164.673 220.871 163.082 218.342C168.814 217.245 174.138 214.465 178.333 210.288L188.356 200.265C190.558 198.063 190.855 194.688 189.263 192.16C194.996 191.062 200.32 188.284 204.514 184.106L214.538 174.083C215.765 172.856 216.455 171.191 216.455 169.455C216.455 167.72 215.765 166.055 214.538 164.828L204.514 154.804L203.454 153.801C203.398 153.751 203.337 153.704 203.281 153.654C207.025 152.031 210.472 149.717 213.413 146.776C219.55 140.638 223 132.317 223.001 123.637V110.546C223.001 106.931 220.069 104.001 216.455 104H203.364C194.684 104 186.363 107.451 180.225 113.588C177.285 116.529 174.963 119.97 173.34 123.713C172.97 123.297 172.592 122.884 172.197 122.487L162.173 112.463C160.946 111.236 159.281 110.546 157.546 110.546C156.027 110.546 154.562 111.074 153.397 112.029L152.918 112.463L142.895 122.487C138.719 126.68 135.933 132 134.835 137.731C132.491 136.26 129.423 136.413 127.235 138.198L126.736 138.645L116.714 148.668C112.537 152.862 109.751 158.183 108.653 163.913C106.309 162.442 103.241 162.595 101.052 164.38L100.554 164.828L90.5319 174.85C85.0331 180.37 81.9469 187.845 81.9469 195.637C81.947 203.429 85.0332 210.904 90.5319 216.424L95.9264 221.819L85.2223 232.522L38.2135 185.513C26.4979 173.797 26.4978 154.802 38.2135 143.086L143.087 38.2133ZM131.364 211.675C135.152 211.675 138.804 212.987 141.713 215.363L142.915 216.443L148.29 221.819L142.915 227.195C139.848 230.25 135.692 231.963 131.364 231.963C127.035 231.963 122.88 230.249 119.813 227.195L114.438 221.819L119.813 216.443C122.88 213.388 127.035 211.675 131.364 211.675ZM110.571 184.099C113.619 187.165 115.326 191.314 115.326 195.637C115.326 199.958 113.621 204.103 110.577 207.168L105.182 212.563L99.7936 207.175C96.7456 204.109 95.0378 199.961 95.0377 195.637C95.0377 191.313 96.7455 187.165 99.7936 184.099L105.182 178.711L110.571 184.099ZM157.546 185.493C161.334 185.493 164.986 186.806 167.894 189.181L169.096 190.261L174.472 195.637L169.096 201.013C166.03 204.068 161.874 205.782 157.546 205.782C153.217 205.782 149.063 204.067 145.996 201.013L140.62 195.637L145.996 190.261C149.063 187.207 153.217 185.493 157.546 185.493ZM136.753 157.917C139.8 160.983 141.508 165.132 141.508 169.455C141.508 173.776 139.802 177.922 136.758 180.987L131.364 186.381L125.975 180.993C122.927 177.927 121.22 173.779 121.219 169.455C121.219 165.132 122.927 160.983 125.975 157.917L131.364 152.529L136.753 157.917ZM183.728 159.311C187.516 159.311 191.168 160.624 194.077 162.999L195.278 164.08L200.654 169.455L195.278 174.83C192.211 177.885 188.057 179.599 183.728 179.599C179.4 179.599 175.244 177.885 172.177 174.83L166.801 169.455L172.177 164.08C175.244 161.025 179.399 159.311 183.728 159.311ZM162.934 131.736C165.982 134.801 167.69 138.95 167.69 143.273C167.69 147.593 165.985 151.739 162.941 154.804L157.546 160.2L152.157 154.811C149.109 151.745 147.402 147.596 147.402 143.273C147.402 138.95 149.109 134.801 152.157 131.736L157.546 126.347L162.934 131.736ZM209.91 117.091V123.637C209.91 128.845 207.839 133.838 204.157 137.52C200.474 141.202 195.481 143.273 190.273 143.273H183.728V136.728C183.728 131.52 185.799 126.527 189.481 122.844C193.164 119.162 198.156 117.091 203.364 117.091H209.91Z" fill="url(#paint0_linear_147_2)"/>
<defs>
<linearGradient id="paint0_linear_147_2" x1="92.5" y1="95" x2="246" y2="256" gradientUnits="userSpaceOnUse">
<stop stop-color="#F05033"/>
<stop offset="1" stop-color="#A5311C"/>
</linearGradient>
</defs>
</svg>
